# xmcd
#
# Track frame offsets:
#	150
#	12840
#	28345
#	46310
#	59072
#	71835
#	85790
#	101040
#	113627
#	127982
#	144232
#	158112
#	171802
#
# Disc length: 2739 seconds
#
# Revision: 1
# Processed by: cddbd v1.5.2PL0 Copyright (c) Steve Scherf et al.
# Submitted via: EZCDAudioConverter 2.8.0.1
#
DISCID=ae0ab10d
DTITLE=Dope - Life
DYEAR=2001
DGENRE=Industrial Metal
TTITLE0=Take Your Best Shot
TTITLE1=Now or Never
TTITLE2=Nothing (Why)
TTITLE3=Stop
TTITLE4=Thanks for Nothing
TTITLE5=Die MF Die
TTITLE6=What About
TTITLE7=Move It
TTITLE8=Jenny's Cryin'
TTITLE9=With or Without You
TTITLE10=Crazy
TTITLE11=Slipping Away
TTITLE12=March of Hope
EXTD=
EXTT0=
EXTT1=
EXTT2=
EXTT3=
EXTT4=
EXTT5=
EXTT6=
EXTT7=
EXTT8=
EXTT9=
EXTT10=
EXTT11=
EXTT12=
PLAYORDER=
